<?xml version="1.0" encoding="utf-8"?>
<svg xmlns="http://www.w3.org/2000/svg" viewBox="0 0 500 500">
  <g transform="matrix(0.1, 0, 0, -0.1, -2.369427, 508.807922)" fill="#FFFFFF" stroke="#FFFFFF" stroke-width="15">
    <path d="M3591 3521 c-28 -28 -41 -84 -42 -181 l0 -85 -55 -43 c-30 -24 -69 -63 -87 -87 -50 -69 -107 -90 -237 -89 -90 0 -115 4 -175 28 -163 64 -296 107 -366 117 -88 12 -1005 20 -1199 11 l-135 -7 75 -8 c41 -5 167 -19 280 -32 113 -14 254 -27 313 -31 l109 -7 -51 -29 c-73 -42 -199 -165 -259 -251 -28 -40 -71 -117 -96 -169 -48 -100 -105 -190 -140 -222 -30 -27 -137 -76 -166 -76 -42 0 -103 -42 -125 -85 -54 -108 -214 -274 -308 -321 -67 -32 -87 -58 -87 -112 0 -24 9 -42 29 -63 26 -26 36 -29 94 -29 102 0 157 34 336 205 l150 145 77 0 c94 0 299 23 411 46 17 3 10 -7 -28 -43 l-51 -48 33 -28 c30 -25 73 -56 130 -92 39 -25 79 -54 144 -106 102 -82 136 -99 200 -99 46 0 56 4 74 26 53 67 8 153 -137 264 l-32 25 47 40 c69 56 140 141 179 210 l33 60 63 -3 c73 -3 140 -20 232 -62 65 -29 66 -30 60 -62 -19 -107 -106 -208 -209 -243 -82 -27 -105 -48 -105 -93 1 -58 35 -77 135 -76 163 1 356 110 469 263 14 19 27 39 29 44 2 6 15 4 33 -6 71 -39 257 -88 409 -108 107 -14 129 -24 215 -99 92 -79 112 -90 170 -90 43 0 56 5 80 29 38 38 47 75 27 117 -43 89 -171 189 -353 274 -71 33 -139 66 -151 72 l-21 10 29 46 c15 25 35 66 42 91 8 25 20 65 27 88 17 54 61 108 113 136 38 20 54 22 171 20 156 -3 159 -1 254 113 53 66 55 96 7 149 -20 21 -43 54 -51 74 -41 92 -59 122 -102 164 -51 50 -155 107 -194 107 -16 0 -28 8 -35 23 -18 40 -121 144 -167 170 -66 37 -92 41 -115 18z m116 -90 c59 -47 86 -76 110 -120 16 -29 30 -38 83 -56 112 -36 197 -107 234 -195 32 -78 38 -89 72 -126 l34 -36 -19 -27 c-65 -90 -122 -123 -185 -109 -67 16 -205 5 -252 -20 -80 -41 -137 -127 -173 -257 -6 -22 -28 -67 -50 -100 -22 -33 -41 -65 -41 -72 0 -14 64 -51 150 -87 161 -68 252 -120 321 -184 87 -80 104 -110 83 -141 -32 -45 -93 -20 -202 80 -69 63 -92 72 -247 93 -164 23 -244 43 -319 80 -83 40 -138 88 -196 168 -97 133 -178 205 -118 106 17 -29 44 -78 61 -108 16 -30 34 -61 40 -67 14 -19 8 -17 -94 31 -281 130 -353 150 -532 144 -64 -1 -117 -2 -117 0 0 2 7 16 15 32 24 47 46 120 43 142 -2 16 -18 -1 -66 -70 -110 -160 -224 -256 -358 -303 -97 -34 -175 -47 -377 -60 l-192 -13 -136 -135 c-155 -155 -224 -202 -304 -209 -46 -4 -55 -2 -64 17 -18 33 1 56 78 96 97 51 261 226 302 322 15 36 19 38 98 59 82 22 167 72 216 127 27 30 70 100 109 180 74 153 128 229 231 325 54 51 101 83 168 115 125 61 176 72 337 70 152 -1 242 -19 406 -78 156 -57 175 -62 244 -74 50 -8 83 -8 141 2 102 18 155 47 209 113 25 31 71 76 103 101 l57 46 0 103 c0 56 3 109 6 118 10 26 39 19 91 -23z m-1277 -1127 c0 -7 -59 -92 -85 -122 -11 -13 -53 -49 -94 -80 l-75 -56 50 -40 c27 -23 77 -68 112 -102 68 -66 78 -97 38 -115 -33 -16 -69 4 -196 106 -58 46 -131 99 -162 117 -32 18 -58 38 -58 43 0 6 28 31 62 55 33 25 77 60 97 78 46 41 128 89 183 107 44 13 128 20 128 9z m659 -164 c22 0 21 -23 -2 -53 -89 -117 -238 -202 -362 -208 -111 -6 -124 12 -34 46 75 28 110 48 148 87 40 40 88 120 101 170 l10 37 65 -40 c36 -21 69 -39 74 -39z" style=""/>
    <path d="M965 2909 c-38 -5 -101 -12 -140 -16 l-70 -6 50 -9 c98 -16 344 -30 589 -35 l250 -5 28 32 c15 18 28 37 28 41 0 11 -641 9 -735 -2z" style=""/>
    <path d="M1219 2676 c-2 -2 -106 -12 -231 -22 -125 -10 -226 -19 -225 -20 1 -1 36 -5 77 -8 41 -3 120 -10 175 -15 96 -10 503 -17 509 -10 1 2 13 21 25 42 l23 37 -175 0 c-95 0 -176 -2 -178 -4z" style=""/>
  </g>
  <title>Shutdown</title>
  <desc>A flat styled icon from Orion Icon Library.</desc>
  <title>Reload</title>
  <desc>A line styled icon from Orion Icon Library.</desc>
  <title>Lock Opened</title>
  <desc>A line styled icon from Orion Icon Library.</desc>
  <path data-name="layer2" d="M 366.64 350.849 L 366.64 335.849 C 366.64 328.67 372.46 322.849 379.64 322.849 C 386.819 322.849 392.64 328.67 392.64 335.849 L 392.64 337.649" stroke-miterlimit="10" stroke-width="4" stroke-linejoin="round" stroke-linecap="round" style="stroke-width: 4; stroke: rgb(255, 255, 255);" fill="none"/>
  <path data-name="layer1" stroke-miterlimit="10" stroke-width="4" d="M 379.64 361.849 L 379.64 371.849" stroke-linejoin="round" stroke-linecap="round" style="stroke-width: 4; stroke: rgb(255, 255, 255);" fill="none"/>
  <rect data-name="layer1" x="357.64" y="350.849" width="44" height="32" rx="6" ry="6" stroke-miterlimit="10" stroke-width="4" stroke-linejoin="round" stroke-linecap="round" style="stroke-width: 4; stroke: rgb(255, 255, 255);" fill="none"/>
</svg>